<?xml version="1.0" encoding="utf-8"?>
<!-- Designed by Vexels.com - 2016 All Rights Reserved - https://vexels.com/terms-and-conditions/  -->

<svg version="1.1" id="Capa_1" xmlns="http://www.w3.org/2000/svg" xmlns:xlink="http://www.w3.org/1999/xlink" x="0px" y="0px"
	 width="1200px" height="1200px" viewBox="0 0 1200 1200" enable-background="new 0 0 1200 1200" xml:space="preserve">
<g>
	<g>
		<g id="Capa_1_1_">
			<g>
				<path fill="#613203" d="M672.009,862.207c-32.223-12.258-60.198,0-60.198,0s-22.636,20.904,0,34.107
					c22.631,13.045,55.64,0.156,77.646,23.58c13.988,14.775,25.307,49.666,7.86,85.029c-9.59,19.488-38.351,42.283-56.743,31.906
					c-18.391-10.529-13.043-33.16-13.043-33.16s35.205-9.592,22.004-13.047c-13.199-3.455-82.205-3.459-95.406,0
					c-13.203,3.461,22.006,13.047,22.006,13.047s5.188,22.633-13.044,33.16c-18.393,10.533-46.997-12.256-56.742-31.906
					c-17.447-35.363-6.13-70.26,7.858-85.029c22.009-23.42,55.016-10.531,77.646-23.58c22.633-13.045,0-34.107,0-34.107
					s-27.978-12.258-60.199,0c-32.224,12.26-47.939,28.762-57.685,54.541c-10.375,27.348-8.644,116.627,13.99,149.789
					c22.16,32.537,63.813,83.463,113.955,83.463c49.826,0.156,91.321-50.299,113.954-83.463
					c22.633-33.162,24.364-122.285,13.989-149.789C719.948,891.127,704.23,874.467,672.009,862.207z"/>
				<path fill="#613203" d="M921.925,215.885c-23.891-31.121-46.685-31.749-54.068-30.964
					c-6.444-51.555-19.648-78.274-19.648-78.274s3.931,53.911-57.844,78.587c24.521-47.311,10.846-97.92,9.432-88.176
					c-1.57,10.845-64.915,50.926-44.797,27.82c20.118-23.104,1.572-81.891,1.572-74.188c0,7.702-88.02,66.33-72.614,55.642
					c15.4-10.845,7.698-46.368,7.698-46.368s0,0-47.936,41.654c-47.94,41.65-176.042,23.103-231.686,50.925
					c-55.641,27.82-55.641,80.319-55.641,80.319s-32.376-12.418-80.319,21.69c-47.939,33.95-32.377,190.03-29.393,237.812
					c3.144,47.939,41.651,146.644,54.069,190.029c12.416,43.223,44.793,13.828,44.793,13.828c-0.628-4.555-5.5-19.176-10.214-38.348
					c3.615,2.982,6.289,7.543,9.589,11.316c4.558,78.588,38.51,112.537,110.183,112.537c71.674,0,103.269-48.564,108.61-68.525
					c5.345-19.963,5.345-55.484,5.345-55.484c0.628-0.631,23.262-4.875,47.939,0c0,0,0,35.363,5.345,55.484
					c5.342,19.963,36.937,68.525,108.61,68.525s105.623-33.947,110.185-112.537c5.028-5.816,8.8-13.68,17.135-14.617
					c3.143,24.52,6.44,39.451,12.417,35.361c18.389-12.412-21.849-10.842,21.376-75.6c43.22-64.915,54.065-134.388,63.34-207.005
					C965.147,334.714,947.229,248.894,921.925,215.885z M527.09,743.85c-27.035,28.451-73.246,26.25-73.246,26.25
					c-42.438,1.572-70.887-15.402-81.732-46.211C361.264,693.078,372.897,653,372.897,653s30.022-23.891,75.444-24.676
					c45.426-0.787,93.207,10.844,103.267,23.891C556.323,686.795,553.967,715.402,527.09,743.85z M814.57,723.889
					c-10.846,30.809-39.295,47.783-81.732,46.211c0,0-46.211,2.357-73.245-26.25c-27.036-28.445-29.235-57.055-24.679-91.635
					c10.06-13.045,57.847-24.678,103.271-23.891c45.426,0.785,75.445,24.678,75.445,24.678S825.415,693.082,814.57,723.889z
					 M824.001,613.078c-19.49-6.131-42.597-16.346-91.164-16.346c-48.566,0-82.52,13.042-109.396,40.866
					c-36.937-8.488-60.203,0-60.203,0c-27.031-27.664-60.826-40.866-109.396-40.866c-48.568,0-71.673,10.213-91.163,16.346
					c-16.504,5.186-27.506,4.557-31.438,5.342c0,0-0.786,3.932-1.728,10.375c-4.401-27.82-5.029-58.783,7.074-82.204
					c26.249-50.926,46.368-128.101,50.925-146.646c4.557-18.547,105.467-33.949,214.078-21.691
					c82.52,9.43,126.844,26.72,167.714,17.605c9.744,3.299,30.648,16.504,55.171,68.844
					c18.075,38.512,24.833,103.269,30.021,153.723C850.251,617.635,839.562,617.793,824.001,613.078z"/>
			</g>
		</g>
	</g>
</g>
</svg>
