<?xml version="1.0" encoding="utf-8"?>
<!-- Designed by Vexels.com - 2016 All Rights Reserved - https://vexels.com/terms-and-conditions/  -->

<svg version="1.1" id="Capa_1" xmlns="http://www.w3.org/2000/svg" xmlns:xlink="http://www.w3.org/1999/xlink" x="0px" y="0px"
	 width="1200px" height="1200px" viewBox="0 0 1200 1200" enable-background="new 0 0 1200 1200" xml:space="preserve">
<g>
	<g>
		<g id="Capa_1_1_">
			<g>
				<path fill="#53B89C" d="M846.601,729.87c8.282-40.97-4.82-52.117-0.605-67.48c4.219-15.515-15.362-59.65-19.581-76.674
					c-4.219-17.018-17.923-16.264-17.923-16.264s-13.859,83.297-16.268,101.824c-8.438,65.07-69.891,123.513-74.26,103.632
					c-9.942-45.79-93.842-50.008-104.837-33.74c-33.742-14.761-100.02-12.047-109.959,33.74
					c-4.368,19.885-65.827-38.562-74.26-103.632c-2.409-18.527-16.267-101.824-16.267-101.824s-13.709-0.905-17.924,16.264
					c-4.217,17.022-23.951,61.309-19.582,76.674c4.366,15.363-8.889,26.512-0.604,67.48c8.284,40.972-6.175,55.433-2.858,71.699
					c3.464,16.268,11.897,90.826,36.753,137.223c24.703,46.242,28.166,103.03,63.113,123.668
					c34.946,20.635,93.843,43.68,100.619,54.826c6.78,11.149,31.631,20.485,36.753,32.386c0.604,1.509,1.205-2.259,1.657-9.789
					c0.45,7.532,1.054,11.147,1.654,9.789c5.121-11.898,29.824-21.388,36.754-32.386c6.778-11.146,65.673-34.192,100.618-54.826
					c34.948-20.637,38.414-77.426,63.117-123.668c24.702-46.242,33.285-120.955,36.752-137.223
					C852.775,785.453,838.316,770.842,846.601,729.87z M682.114,832.299c-6.024,13.708-53.02,12.202-71.546,4.667
					c-18.678,7.535-65.675,8.891-71.549-4.667c-6.026-13.708-11.294-24.852,10.695-39.915c11.146-7.684,40.519-22.598,60.855-25.31
					c20.483,2.712,49.855,17.626,61.005,25.31C693.41,807.445,688.141,818.591,682.114,832.299z"/>
				<path fill="#53B89C" d="M833.346,502.272c0,0-15.816,1.354-37.658-6.629c-21.991-8.135-36.3-11.447-70.644-12.352
					c-34.346-0.904-77.875,27.264-80.137,29.521c-3.915-8.582-16.421-12.5-28.922-12.352c-12.352-0.148-24.852,3.77-28.918,12.352
					c-2.411-2.406-45.795-30.574-80.139-29.521c-34.342,0.904-48.652,4.369-70.644,12.352c-21.991,8.135-37.658,6.628-37.658,6.628
					c-0.903,15.815,2.859,26.21,9.49,31.934c6.629,5.725,9.037,20.938,10.997,38.711c5.272,64.47,65.825,69.137,65.825,69.137
					s54.377,10.093,82.544-21.54c37.657-38.71,25.308-82.093,23.802-84.503c-1.355-2.408-0.902-8.133,1.505-13.856
					c6.479-9.49,15.516-12.201,23.198-12.5c7.683,0.302,16.567,3.013,23.194,12.5c2.41,5.723,2.862,11.448,1.506,13.856
					c-1.506,2.41-13.856,45.793,23.803,84.503c28.166,31.483,82.543,21.54,82.543,21.54s60.555-4.817,65.825-69.137
					c1.959-17.625,4.219-32.989,10.998-38.711C830.332,528.63,834.247,518.087,833.346,502.272z M412.639,522.305
					c-4.668,0-3.315-8.284-4.668-9.188l7.532-1.205C415.503,511.911,417.308,522.305,412.639,522.305z M564.022,608.313
					c-21.992,28.922-78.931,35.098-116.135,7.53c-20.184-15.062-23.499-62.959-22.747-71.698
					c1.057-13.104,10.997-50.762,76.974-51.363c0,0,38.863-3.313,65.672,23.048C585.561,533.45,585.41,579.995,564.022,608.313z
					 M783.786,615.844c-37.356,27.415-94.142,21.392-116.133-7.53c-21.391-28.168-21.544-74.862-3.615-92.334
					c26.66-26.211,65.674-23.048,65.674-23.048c65.824,0.452,75.765,38.261,76.972,51.366
					C807.286,552.882,805.327,600.029,783.786,615.844z M817.83,522.305c-4.67,0-2.858-10.394-2.858-10.394l7.531,1.205
					C821.145,513.87,822.35,522.305,817.83,522.305z"/>
				<path fill="#53B89C" d="M638.281,444.278c-68.234,26.359-136.019,26.962-136.019,26.962l10.091-19.129l-74.26,36.75
					l-14.459-24.399c-22.596,13.105-31.181,120.804-31.181,120.804l-13.104-87.363c0,0-26.209,13.104-20.336,4.971
					c5.873-8.283,1.506-73.207,1.506-73.207h-37.807c0,0,30.574-24.704,20.335-100.318
					c-10.244-75.616,90.226-183.316,132.401-218.26c42.174-34.946,171.565-48.054,206.509-29.071l6.325,3.464
					c0,0-6.325-32.385-23.799-34.644c-17.473-2.26,37.808-2.562,40.667,34.644c2.862,37.205,24.704-6.176,52.418-12.052
					c27.718-5.873,23.35,1.809,23.35,1.809s-45.038,15.967-33.439,25.155c0,0,45.639,6.175,67.784,39.313
					c22.145,33.139,52.116,100.168,60.553,101.524c8.435,1.355-22.142,0-22.142,0s15.667,12.954,18.83,53.321
					c3.313,40.37-29.226,149.725-35.854,162.076c-6.477,12.352-16.568,32.386-16.568,32.386s-11.898-14.159-10.395-47.899
					c1.506-33.739-14.912-63.716-14.912-63.716s-33.438,34.493-95.347,60.553c-52.42,21.991-70.947,25.307-91.282,24.101"/>
			</g>
		</g>
	</g>
</g>
</svg>
