<?xml version="1.0" encoding="utf-8"?>
<!-- Designed by Vexels.com - 2016 All Rights Reserved - https://vexels.com/terms-and-conditions/  -->

<svg version="1.1" id="Capa_1" xmlns="http://www.w3.org/2000/svg" xmlns:xlink="http://www.w3.org/1999/xlink" x="0px" y="0px"
	 width="1200px" height="1200px" viewBox="0 0 1200 1200" enable-background="new 0 0 1200 1200" xml:space="preserve">
<g>
	<g>
		<g id="Capa_1_1_">
			<path fill="#ED6B33" d="M873.693,663.394c9.557-47.373-5.68-60.257-0.693-78.122c4.986-17.869-17.729-68.982-22.717-88.791
				c-1.385-5.54-3.742-9.558-6.234-12.328c0.277-1.803,24.517-195.172,20.503-234.233c-4.019-39.339-52.638-37.954-52.638-37.954
				l-12.606,13.576c2.493-8.727,3.602-17.177,4.709-24.38c9.28-59.562-31.859-83.665-31.859-83.665l-4.433,7.203
				c1.939-13.297,0.416-27.704-4.432-42.524c-11.081-34.63-34.353-32.137-34.353-32.137s17.729,17.731-4.851,46.542
				c-22.438,28.951-163.036-1.662-256.948-7.202c-93.916-5.541-104.443,122.864-103.612,127.159c0,0,0.137,0.138,0.137,0.277
				c-5.958-1.108-12.88,1.107-22.301,9.973c-18.977,17.729-21.192,87.543-18.146,130.07c3.048,42.525,43.497,121.063,43.497,121.063
				s0.135,0.138,0.414,0.416c-4.985,1.107-13.298,4.986-16.622,18.287c-4.987,19.807-27.704,70.92-22.718,88.787
				c4.987,17.87-10.25,30.753-0.691,78.125c9.557,47.376-7.202,64.271-3.187,82.972c4.018,18.701,13.852,105.274,42.524,158.879
				c28.675,53.606,32.553,119.266,73.137,143.229c40.447,23.964,108.598,50.698,116.634,63.44
				c8.034,12.743,36.568,23.687,42.525,37.539c0.691,1.661,1.385-2.494,1.938-11.221c0.558,8.727,1.108,13.022,1.939,11.221
				c5.956-13.854,34.629-24.656,42.524-37.539c7.895-12.883,76.045-39.478,116.633-63.44
				c40.446-23.965,44.464-89.623,73.136-143.229c28.675-53.604,38.51-140.041,42.525-158.879
				C880.896,727.665,864.135,710.905,873.693,663.394z M683.369,781.964c-6.927,15.792-61.362,14.129-82.833,5.402
				c-21.609,8.727-75.908,10.389-82.834-5.402c-6.925-15.791-13.021-28.812,12.33-46.264c12.88-8.864,46.955-26.182,70.506-29.227
				c23.688,3.05,57.622,20.361,70.507,29.227C696.389,753.151,690.295,766.173,683.369,781.964z M810.667,595.657
				c-9.693,75.354-80.895,142.952-85.881,119.957c-11.496-53.052-108.735-57.898-121.34-39.062
				c-39.063-17.174-115.802-13.852-127.301,39.062c-4.987,22.995-76.185-44.604-85.88-119.957
				c-2.357-18.423-14.545-92.39-18.008-112.753c3.185,2.078,6.648,2.493,7.343-5.265c1.521-14.682,0.829-64.826,12.187-109.012
				c11.222-44.188,34.491-64.964,44.188-77.017c0,0,54.436,12.189,138.102,14.406c54.163,1.522,126.605-2.355,169.133-20.224l0,0
				c0,0,25.624,0.969,39.615,34.628c14.13,34.076,46.818,157.218,46.818,157.218S813.439,574.186,810.667,595.657z"/>
		</g>
	</g>
</g>
</svg>
