<?xml version="1.0" encoding="utf-8"?>
<!-- Designed by Vexels.com - 2016 All Rights Reserved - https://vexels.com/terms-and-conditions/  -->

<svg version="1.1" id="Capa_1" xmlns="http://www.w3.org/2000/svg" xmlns:xlink="http://www.w3.org/1999/xlink" x="0px" y="0px"
	 width="1200px" height="1200px" viewBox="0 0 1200 1200" enable-background="new 0 0 1200 1200" xml:space="preserve">
<g>
	<g>
		<g id="Capa_1_1_">
			<g>
				<path fill="#B33024" d="M928.567,277.98c-10.09-1.506-45.786-81.328-72.142-120.938c-26.355-39.609-80.727-46.838-80.727-46.838
					c-13.854-10.995,39.91-30.122,39.91-30.122s5.272-9.187-27.711-2.259c-32.982,7.078-58.89,58.888-62.354,14.458
					c-3.464-44.43-69.278-43.979-48.494-41.266c20.783,2.712,28.464,41.266,28.464,41.266l-7.682-4.067
					c-41.719-22.591-195.791-6.928-246.092,34.64c-50.303,41.719-169.885,170.037-157.836,260.099
					c12.2,90.062-24.248,119.583-24.248,119.583h45.032c0,0,5.273,77.415-1.807,87.201c-6.929,9.79,24.248-5.872,24.248-5.872
					l15.664,104.07c0,0,5.119-63.256,17.469-106.33c0.603,13.102,4.668,22.139,10.843,27.56c7.531,6.478,10.244,23.797,12.35,43.678
					c5.873,72.895,74.552,78.315,74.552,78.315s61.598,11.293,93.376-24.251c42.622-43.674,28.612-92.925,26.959-95.636
					c-1.656-2.711-1.057-9.188,1.653-15.662c7.38-10.694,17.47-13.857,26.207-14.158c8.737,0.301,18.828,3.464,26.207,14.158
					c2.708,6.476,3.313,12.951,1.653,15.662c-1.656,2.711-15.661,51.809,26.96,95.636c31.777,35.696,93.376,24.251,93.376,24.251
					s68.529-5.422,74.551-78.315c2.107-20.032,4.818-37.2,12.352-43.678c7.53-6.476,11.896-18.376,10.842-36.147
					c0,0-17.771,1.656-42.621-7.53c-24.848-9.187-40.963-12.951-79.972-14.006c-38.858-1.056-87.954,30.727-90.664,33.438
					c-4.52-9.639-18.676-14.16-32.684-14.006c-14.007-0.151-28.164,4.367-32.684,14.006c-2.562-2.562-48.194-32.233-86.298-33.438
					c23.043-1.355,72.592-6.323,125.606-23.345l-8.735,10.092l-4.365,2.561c0.752,0,1.355,0.15,2.107,0.15l-2.409,2.857
					c0,0,1.656-0.752,5.271-2.711c22.593,0.754,45.633-4.519,103.919-28.916c73.797-31.021,113.708-72.14,113.708-72.14
					s19.579,35.695,17.771,75.904c-1.958,40.367,12.35,57.08,12.35,57.08s12.049-23.795,19.883-38.555
					c7.682-14.756,46.537-145.035,42.621-193.08c-3.917-48.043-22.438-63.556-22.438-63.556S938.657,279.637,928.567,277.98z
					 M841.518,583.865l8.435,1.355c-1.357,0.904,0,10.393-5.272,10.393C839.559,595.762,841.518,583.865,841.518,583.865z
					 M670.727,588.532c30.272-29.67,74.25-26.057,74.25-26.057c74.549,0.604,85.848,43.226,87.051,57.985
					c0.904,9.786-1.354,63.104-25.754,81.026c-42.321,31.021-106.478,24.248-131.478-8.584
					C650.696,660.975,650.545,608.262,670.727,588.532z M495.872,529.345l-11.897,22.591c-19.126,0.903-32.38,2.563-44.58,5.423
					L495.872,529.345z M386.381,595.762c-5.272,0-3.766-9.49-5.272-10.393l8.434-1.356
					C389.693,583.865,391.65,595.762,386.381,595.762z M372.977,573.172c4.819-14.31,10.39-25.152,17.169-29.064l14.458,24.246
					C389.391,572.869,377.795,573.321,372.977,573.172z M557.772,693.055c-24.85,32.832-89.311,39.761-131.329,8.584
					c-22.891-17.019-26.657-71.236-25.754-81.025c1.204-14.758,12.5-57.532,87.053-57.981c0,0,43.979-3.614,74.248,26.056
					C582.171,608.262,582.02,660.975,557.772,693.055z"/>
				<path fill="#B33024" d="M620.726,1149.997c-2.563,0-6.325,0-10.996-0.15c-4.668,0.15-8.436,0.15-10.995,0.15H620.726z"/>
				<path fill="#B33024" d="M624.189,1149.997h-3.464C622.985,1149.997,624.189,1149.997,624.189,1149.997z"/>
				<path fill="#B33024" d="M598.737,1149.997h-3.464C595.273,1149.997,596.479,1149.997,598.737,1149.997z"/>
				<path fill="#B33024" d="M789.857,864.295c-16.564,2.563-57.381-56.023-100.753-65.814c-43.375-9.791-80.274-9.339-80.274-9.339
					s-38.705,0.304-78.466,9.339c-43.372,9.788-84.187,68.375-100.755,65.814c-16.567-2.56-29.52-46.836-39.61-79.822
					c-10.091-32.981-28.164-68.524-28.164-68.524s0.149,1.655,0.303,4.518c1.203,20.784,7.076,107.986,19.127,136.149
					c13.707,32.078,14.458,144.135,56.177,183.288c41.717,39.009,40.664,74.704,77.263,92.926
					c26.507,13.254,71.988,16.419,95.031,17.171c23.191-0.752,68.675-3.915,95.032-17.171c36.597-18.222,35.543-53.765,77.26-92.926
					c41.715-39.007,42.621-151.059,56.179-183.288c12.047-28.163,17.77-115.365,19.131-136.149c0.146-2.858,0.3-4.518,0.3-4.518
					s-18.226,35.543-28.164,68.524C819.376,817.456,806.274,861.734,789.857,864.295z M713.35,876.494
					c-3.464,20.783-8.738,47.743-32.985,56.475c-24.248,8.738-59.938-1.807-59.037-16.565c0.903-14.756,31.778-13.855,21.536-21.687
					c-10.241-7.831-56.176-7.831-66.417,0c-10.241,7.829,20.633,6.931,21.539,21.687c0.903,14.76-34.791,25.149-59.039,16.565
					c-24.248-8.734-29.521-35.541-32.984-56.475c-3.465-20.784,29.521-28.615,50.303-39.008c20.783-10.393,85.846-10.393,106.629,0
					C683.829,847.879,716.814,855.559,713.35,876.494z"/>
			</g>
		</g>
	</g>
</g>
</svg>
